<svg width="119" height="47" viewBox="0 0 119 47" fill="none" xmlns="http://www.w3.org/2000/svg">
<path d="M15.744 30L10.784 22.512H7.67996V30H3.03996V6.448H10.176C13.0986 6.448 15.36 7.16267 16.96 8.592C18.5813 10 19.392 11.9307 19.392 14.384C19.392 15.8347 19.0826 17.2 18.464 18.48C17.8666 19.7387 16.9386 20.7307 15.68 21.456L21.152 30H15.744ZM7.67996 18.032H10.976C12.2346 18.032 13.152 17.6693 13.728 16.944C14.304 16.1973 14.592 15.3973 14.592 14.544C14.592 13.6907 14.3466 12.88 13.856 12.112C13.3653 11.3227 12.416 10.928 11.008 10.928H7.67996V18.032Z" fill="black"/>
<path d="M29.1375 21.296C29.1375 22.0427 29.3615 22.7573 29.8095 23.44C30.2575 24.1227 30.8548 24.6773 31.6015 25.104C32.3481 25.5307 33.1481 25.744 34.0015 25.744C34.9188 25.744 35.7615 25.5307 36.5295 25.104C37.2975 24.6773 37.8948 24.1227 38.3215 23.44C38.7695 22.7573 38.9935 22.0427 38.9935 21.296V6.448H43.5695V21.392C43.5695 23.0773 43.1428 24.6027 42.2895 25.968C41.4361 27.312 40.2735 28.368 38.8015 29.136C37.3508 29.8827 35.7508 30.256 34.0015 30.256C32.2521 30.256 30.6521 29.8827 29.2015 29.136C27.7508 28.368 26.5988 27.312 25.7455 25.968C24.9135 24.6027 24.4975 23.0773 24.4975 21.392V6.448H29.1375V21.296ZM28.3375 2.672C28.3375 2.01067 28.5721 1.456 29.0415 1.008C29.5108 0.559999 30.0441 0.335999 30.6415 0.335999C31.1961 0.335999 31.7081 0.570665 32.1775 1.04C32.6468 1.488 32.8815 2.032 32.8815 2.672C32.8815 3.33333 32.6468 3.888 32.1775 4.336C31.7081 4.76266 31.1961 4.976 30.6415 4.976C30.0441 4.976 29.5108 4.76266 29.0415 4.336C28.5721 3.888 28.3375 3.33333 28.3375 2.672ZM34.7375 2.672C34.7375 2.01067 34.9721 1.456 35.4415 1.008C35.9108 0.559999 36.4441 0.335999 37.0415 0.335999C37.5961 0.335999 38.1081 0.570665 38.5775 1.04C39.0468 1.488 39.2815 2.032 39.2815 2.672C39.2815 3.33333 39.0468 3.888 38.5775 4.336C38.1081 4.76266 37.5961 4.976 37.0415 4.976C36.4441 4.976 35.9108 4.76266 35.4415 4.336C34.9721 3.888 34.7375 3.33333 34.7375 2.672Z" fill="black"/>
<path d="M68.269 27.632C67.9063 28.016 67.2556 28.4213 66.317 28.848C65.3996 29.2533 64.3756 29.5947 63.245 29.872C62.1356 30.128 61.1223 30.256 60.205 30.256C57.709 30.256 55.5116 29.776 53.613 28.816C51.7356 27.8347 50.285 26.4907 49.261 24.784C48.237 23.056 47.725 21.0933 47.725 18.896C47.725 16.144 48.269 13.8187 49.357 11.92C50.445 10 51.9063 8.57067 53.741 7.632C55.5756 6.672 57.6023 6.192 59.821 6.192C61.2503 6.192 62.5943 6.352 63.853 6.672C65.1116 6.992 66.221 7.408 67.181 7.92L65.677 12.24C65.0583 11.8987 64.205 11.5893 63.117 11.312C62.0503 11.0133 61.1543 10.864 60.429 10.864C57.869 10.864 55.9063 11.504 54.541 12.784C53.197 14.064 52.525 15.9627 52.525 18.48C52.525 19.9307 52.8556 21.2 53.517 22.288C54.1783 23.3547 55.0956 24.176 56.269 24.752C57.4636 25.328 58.8183 25.616 60.333 25.616C61.7836 25.616 62.861 25.4133 63.565 25.008V22.16H59.501V17.68H68.269V27.632Z" fill="black"/>
<path d="M89.604 6.448V10.928H78.18V15.952H88.292V20.432H78.18V25.52H90.052V30H73.54V6.448H89.604Z" fill="black"/>
<path d="M116.068 6.448V30.96H115.94L99.4605 16.08L99.5565 30H94.8525V5.52H95.0445L111.492 20.624L111.396 6.448H116.068Z" fill="black"/>
<path d="M7.72796 42.96H3.27996L2.04796 46H0.511963L5.56796 33.952H5.66396L10.72 46H8.92796L7.72796 42.96ZM7.19996 41.616L5.55196 37.392L3.83996 41.616H7.19996Z" fill="black"/>
<path d="M17.2667 34.432C18.5254 34.432 19.5067 34.7467 20.2107 35.376C20.9254 36.0053 21.2827 36.8853 21.2827 38.016C21.2827 38.6667 21.1494 39.2747 20.8827 39.84C20.6267 40.4053 20.2054 40.864 19.6187 41.216C19.0427 41.568 18.312 41.744 17.4267 41.744H15.7147V46H14.1627V34.432H17.2667ZM17.4267 40.24C17.9814 40.24 18.4294 40.1227 18.7707 39.888C19.1227 39.6533 19.3734 39.3707 19.5227 39.04C19.672 38.6987 19.7467 38.368 19.7467 38.048C19.7467 37.4933 19.5654 37.0027 19.2027 36.576C18.84 36.1387 18.2747 35.92 17.5067 35.92H15.7147V40.24H17.4267Z" fill="black"/>
<path d="M29.8973 42.96H25.4493L24.2173 46H22.6813L27.7373 33.952H27.8333L32.8893 46H31.0973L29.8973 42.96ZM29.3693 41.616L27.7213 37.392L26.0093 41.616H29.3693Z" fill="black"/>
<path d="M42.7001 46L39.9801 41.728C39.8948 41.7387 39.7668 41.744 39.5961 41.744H37.8841V46H36.3321V34.432H39.4201C40.2094 34.432 40.9134 34.5707 41.5321 34.848C42.1508 35.1253 42.6361 35.536 42.9881 36.08C43.3401 36.6133 43.5161 37.2587 43.5161 38.016C43.5161 38.7307 43.3561 39.3867 43.0361 39.984C42.7268 40.5813 42.2468 41.0347 41.5961 41.344L44.5081 46H42.7001ZM39.5641 40.24C40.3961 40.24 40.9934 40.0213 41.3561 39.584C41.7294 39.1467 41.9161 38.6453 41.9161 38.08C41.9161 37.7387 41.8361 37.4027 41.6761 37.072C41.5268 36.7413 41.2814 36.4693 40.9401 36.256C40.6094 36.032 40.1881 35.92 39.6761 35.92H37.8841V40.24H39.5641Z" fill="black"/>
<path d="M54.8503 34.432V35.92H51.7463V46H50.1943V35.92H47.1703V34.432H54.8503Z" fill="black"/>
<path d="M70.1148 34.064V46H68.5788V38.512L64.3228 44.544H64.2908L60.1148 38.72V46H58.6108V34.064H58.6268L64.3228 42.128L70.0988 34.064H70.1148Z" fill="black"/>
<path d="M82.239 34.432V35.92H76.271V39.44H81.599V40.928H76.271V44.496H82.463V46H74.719V34.432H82.239Z" fill="black"/>
<path d="M96.5321 34.432V46.384H96.4841L87.9881 37.76L88.0201 46H86.4521V34.08H86.5321L95.0121 42.8L94.9801 34.432H96.5321Z" fill="black"/>
<path d="M107.97 34.432V35.92H104.866V46H103.314V35.92H100.29V34.432H107.97Z" fill="black"/>
<path d="M117.715 36.496C117.299 36.272 116.856 36.0907 116.387 35.952C115.917 35.8133 115.475 35.744 115.059 35.744C114.43 35.744 113.928 35.888 113.555 36.176C113.192 36.4533 113.011 36.8373 113.011 37.328C113.011 37.808 113.224 38.2027 113.651 38.512C114.088 38.8107 114.707 39.1093 115.507 39.408C116.104 39.6213 116.606 39.856 117.011 40.112C117.427 40.3573 117.768 40.704 118.035 41.152C118.312 41.5893 118.451 42.1493 118.451 42.832C118.451 43.4507 118.296 44.0107 117.987 44.512C117.677 45.0133 117.235 45.408 116.659 45.696C116.094 45.984 115.427 46.128 114.659 46.128C113.944 46.128 113.256 46.016 112.595 45.792C111.933 45.5573 111.352 45.264 110.851 44.912L111.539 43.68C111.934 43.9787 112.408 44.2347 112.963 44.448C113.518 44.6507 114.035 44.752 114.515 44.752C115.133 44.752 115.672 44.592 116.131 44.272C116.6 43.952 116.835 43.4773 116.835 42.848C116.835 42.3147 116.638 41.8933 116.243 41.584C115.859 41.264 115.315 40.9653 114.611 40.688C113.96 40.4427 113.416 40.2027 112.979 39.968C112.552 39.7333 112.184 39.4133 111.875 39.008C111.565 38.592 111.411 38.0747 111.411 37.456C111.411 36.5493 111.726 35.8187 112.355 35.264C112.995 34.6987 113.821 34.4 114.835 34.368C116.083 34.368 117.24 34.6773 118.307 35.296L117.715 36.496Z" fill="black"/>
</svg>
