<svg width="177" height="37" viewBox="0 0 177 37" fill="none" xmlns="http://www.w3.org/2000/svg">
<path d="M3.24 16.52H7.84C9.81333 16.52 11.36 16.0933 12.48 15.24C13.6 14.3867 14.16 13.12 14.16 11.44C14.16 9.78667 13.5733 8.53333 12.4 7.68C11.2267 6.82667 9.54667 6.4 7.36 6.4C6.64 6.4 5.90667 6.44 5.16 6.52C4.44 6.57333 3.8 6.65333 3.24 6.76V16.52ZM7.84 19.24H0V5.88C0 5.45333 0.106667 5.13333 0.32 4.92C0.56 4.68 0.893334 4.49333 1.32 4.36C2.09333 4.12 3.04 3.94667 4.16 3.84C5.30667 3.73333 6.41333 3.68 7.48 3.68C10.8133 3.68 13.3067 4.36 14.96 5.72C16.6133 7.08 17.44 8.98667 17.44 11.44C17.44 13.0133 17.08 14.3867 16.36 15.56C15.64 16.7333 14.5733 17.64 13.16 18.28C11.7467 18.92 9.97333 19.24 7.84 19.24ZM7.92 18.2L10.32 17C11.0667 17.9333 11.84 18.9067 12.64 19.92C13.44 20.9333 14.2133 21.92 14.96 22.88C15.7067 23.84 16.3733 24.7067 16.96 25.48C17.5467 26.2267 18 26.8133 18.32 27.24C18.2133 27.6933 17.9733 28.0533 17.6 28.32C17.2533 28.5867 16.8933 28.72 16.52 28.72C16.0667 28.72 15.6933 28.6133 15.4 28.4C15.1067 28.16 14.8 27.8267 14.48 27.4L7.92 18.2ZM0 18.36H3.28V28.36C3.12 28.4133 2.90667 28.4667 2.64 28.52C2.37333 28.6 2.08 28.64 1.76 28.64C1.17333 28.64 0.733334 28.52 0.44 28.28C0.146667 28.04 0 27.6667 0 27.16V18.36Z" fill="black"/>
<path d="M22.6822 21.68V18.04H25.8822V21.52C25.8822 23.2267 26.3355 24.4533 27.2422 25.2C28.1489 25.9467 29.4022 26.32 31.0022 26.32C32.0689 26.32 32.9755 26.2133 33.7222 26C34.4689 25.76 35.0555 25.52 35.4822 25.28V18.04H38.6822V25.16C38.6822 25.72 38.6022 26.1733 38.4422 26.52C38.3089 26.84 37.9622 27.16 37.4022 27.48C36.8155 27.8267 35.9755 28.16 34.8822 28.48C33.7889 28.8 32.4822 28.96 30.9622 28.96C29.2022 28.96 27.6955 28.7067 26.4422 28.2C25.2155 27.6667 24.2822 26.8667 23.6422 25.8C23.0022 24.7067 22.6822 23.3333 22.6822 21.68ZM38.6822 20.12H35.4822V10.04C35.6155 9.98667 35.8155 9.93333 36.0822 9.88C36.3755 9.8 36.6689 9.76 36.9622 9.76C37.5489 9.76 37.9755 9.88 38.2422 10.12C38.5355 10.3333 38.6822 10.7067 38.6822 11.24V20.12ZM25.8822 20.12H22.6822V10.04C22.8155 9.98667 23.0155 9.93333 23.2822 9.88C23.5755 9.8 23.8822 9.76 24.2022 9.76C24.7622 9.76 25.1755 9.88 25.4422 10.12C25.7355 10.3333 25.8822 10.7067 25.8822 11.24V20.12ZM29.1222 4.4C29.1222 4.90667 28.9355 5.36 28.5622 5.76C28.1889 6.13333 27.7089 6.32 27.1222 6.32C26.5622 6.32 26.0955 6.13333 25.7222 5.76C25.3755 5.36 25.2022 4.90667 25.2022 4.4C25.2022 3.86667 25.3755 3.41333 25.7222 3.04C26.0955 2.66667 26.5622 2.48 27.1222 2.48C27.7089 2.48 28.1889 2.66667 28.5622 3.04C28.9355 3.41333 29.1222 3.86667 29.1222 4.4ZM36.0422 4.4C36.0422 4.90667 35.8422 5.36 35.4422 5.76C35.0689 6.13333 34.6022 6.32 34.0422 6.32C33.5089 6.32 33.0422 6.13333 32.6422 5.76C32.2689 5.36 32.0822 4.90667 32.0822 4.4C32.0822 3.86667 32.2689 3.41333 32.6422 3.04C33.0422 2.66667 33.5089 2.48 34.0422 2.48C34.6022 2.48 35.0689 2.66667 35.4422 3.04C35.8422 3.41333 36.0422 3.86667 36.0422 4.4Z" fill="black"/>
<path d="M52.3544 27.88C50.8077 27.88 49.381 27.5867 48.0744 27C46.7677 26.3867 45.7144 25.4 44.9144 24.04C44.1144 22.68 43.7144 20.88 43.7144 18.64C43.7144 16.6133 44.101 14.92 44.8744 13.56C45.6744 12.2 46.7677 11.1733 48.1544 10.48C49.541 9.78667 51.1277 9.44 52.9144 9.44C54.141 9.44 55.261 9.6 56.2744 9.92C57.3144 10.2133 58.181 10.5867 58.8744 11.04C59.2744 11.3067 59.5944 11.6133 59.8344 11.96C60.101 12.28 60.2344 12.68 60.2344 13.16V25.52H57.0344V13.2C56.581 12.9067 56.0077 12.6533 55.3144 12.44C54.6477 12.2 53.8477 12.08 52.9144 12.08C51.1277 12.08 49.6877 12.6267 48.5944 13.72C47.501 14.8133 46.9544 16.44 46.9544 18.6C46.9544 21 47.501 22.7067 48.5944 23.72C49.7144 24.7333 51.0877 25.24 52.7144 25.24C53.8877 25.24 54.8344 25.04 55.5544 24.64C56.2744 24.24 56.8477 23.8 57.2744 23.32L57.4344 26.16C57.0344 26.5867 56.3944 26.9867 55.5144 27.36C54.661 27.7067 53.6077 27.88 52.3544 27.88ZM57.0344 29.04V24.84H60.2344V29.24C60.2344 31 59.8477 32.4133 59.0744 33.48C58.3277 34.5467 57.2877 35.32 55.9544 35.8C54.6477 36.28 53.1677 36.52 51.5144 36.52C50.181 36.52 49.0344 36.3733 48.0744 36.08C47.1144 35.7867 46.461 35.5467 46.1144 35.36C45.3144 34.9067 44.9144 34.3333 44.9144 33.64C44.9144 33.2667 44.9944 32.9467 45.1544 32.68C45.341 32.44 45.5677 32.2533 45.8344 32.12C46.3944 32.5467 47.181 32.9333 48.1944 33.28C49.2344 33.6533 50.341 33.84 51.5144 33.84C53.301 33.84 54.661 33.4533 55.5944 32.68C56.5544 31.9067 57.0344 30.6933 57.0344 29.04Z" fill="black"/>
<path d="M67.3187 21.24L67.1588 18.72L79.2387 17.08C79.1321 15.6133 78.6254 14.4133 77.7188 13.48C76.8121 12.52 75.5587 12.04 73.9587 12.04C72.3054 12.04 70.9321 12.64 69.8388 13.84C68.7721 15.0133 68.2387 16.7067 68.2387 18.92V19.8C68.4254 21.9333 69.1188 23.56 70.3187 24.68C71.5454 25.7733 73.2121 26.32 75.3187 26.32C76.4388 26.32 77.4521 26.1333 78.3587 25.76C79.2654 25.3867 79.9854 24.9867 80.5188 24.56C80.8121 24.7467 81.0387 24.9733 81.1988 25.24C81.3854 25.48 81.4788 25.76 81.4788 26.08C81.4788 26.5867 81.1854 27.0667 80.5987 27.52C80.0387 27.9467 79.2787 28.2933 78.3187 28.56C77.3854 28.8267 76.3321 28.96 75.1588 28.96C73.1054 28.96 71.3187 28.5867 69.7988 27.84C68.3054 27.0933 67.1454 25.9867 66.3187 24.52C65.5187 23.0267 65.1188 21.2133 65.1188 19.08C65.1188 17.56 65.3321 16.2133 65.7588 15.04C66.2121 13.84 66.8254 12.8267 67.5987 12C68.3988 11.1733 69.3454 10.5467 70.4388 10.12C71.5321 9.66667 72.7188 9.44 73.9987 9.44C75.6254 9.44 77.0521 9.78667 78.2787 10.48C79.5321 11.1733 80.5054 12.1467 81.1988 13.4C81.9188 14.6267 82.2787 16.04 82.2787 17.64C82.2787 18.2267 82.1454 18.6533 81.8788 18.92C81.6121 19.16 81.2388 19.3067 80.7588 19.36L67.3187 21.24Z" fill="black"/>
<path d="M102.901 16.24V20.32H99.7009V16.4C99.7009 14.9067 99.2743 13.8133 98.4209 13.12C97.5943 12.4267 96.4743 12.08 95.0609 12.08C93.9943 12.08 93.0476 12.2133 92.2209 12.48C91.3943 12.7467 90.6876 13.0533 90.1009 13.4V20.32H86.9009V13.56C86.9009 13 87.0076 12.5467 87.2209 12.2C87.4609 11.8267 87.8609 11.4667 88.4209 11.12C89.1143 10.72 90.0343 10.3467 91.1809 10C92.3276 9.62667 93.6209 9.44 95.0609 9.44C97.4876 9.44 99.3943 10 100.781 11.12C102.194 12.2133 102.901 13.92 102.901 16.24ZM86.9009 18.12H90.1009V28.36C89.9676 28.4133 89.7676 28.4667 89.5009 28.52C89.2343 28.6 88.9409 28.64 88.6209 28.64C88.0609 28.64 87.6343 28.5333 87.3409 28.32C87.0476 28.08 86.9009 27.7067 86.9009 27.2V18.12ZM99.7009 18.12H102.901V28.36C102.768 28.4133 102.554 28.4667 102.261 28.52C101.994 28.6 101.714 28.64 101.421 28.64C100.834 28.64 100.394 28.5333 100.101 28.32C99.8343 28.08 99.7009 27.7067 99.7009 27.2V18.12Z" fill="black"/>
<path d="M113.293 9.8V4.2H126.613C126.8 4.49333 126.96 4.88 127.093 5.36C127.253 5.84 127.333 6.36 127.333 6.92C127.333 7.90667 127.106 8.64 126.653 9.12C126.226 9.57333 125.64 9.8 124.893 9.8H113.293ZM120.653 4.2V9.8H107.333C107.146 9.50667 106.973 9.12 106.813 8.64C106.68 8.16 106.613 7.64 106.613 7.08C106.613 6.06667 106.826 5.33333 107.253 4.88C107.706 4.42667 108.306 4.2 109.053 4.2H120.653ZM113.373 8.72H120.373V28.4C120.08 28.48 119.626 28.56 119.013 28.64C118.4 28.72 117.773 28.76 117.133 28.76C115.746 28.76 114.773 28.52 114.213 28.04C113.653 27.5333 113.373 26.6667 113.373 25.44V8.72Z" fill="black"/>
<path d="M135.398 14.72V19.28H128.598V13.68C128.598 12.9067 128.798 12.24 129.198 11.68C129.625 11.0933 130.171 10.5867 130.838 10.16C131.771 9.6 132.865 9.17333 134.118 8.88C135.371 8.58667 136.665 8.44 137.998 8.44C140.905 8.44 142.358 9.46667 142.358 11.52C142.358 12 142.291 12.4533 142.158 12.88C142.025 13.28 141.865 13.6267 141.678 13.92C141.411 13.8667 141.091 13.8267 140.718 13.8C140.345 13.7733 139.931 13.76 139.478 13.76C138.811 13.76 138.105 13.84 137.358 14C136.611 14.16 135.958 14.4 135.398 14.72ZM128.598 17.88H135.398V28.4C135.105 28.48 134.678 28.56 134.118 28.64C133.585 28.72 132.998 28.76 132.358 28.76C131.051 28.76 130.091 28.5333 129.478 28.08C128.891 27.6267 128.598 26.7867 128.598 25.56V17.88Z" fill="black"/>
<path d="M144.883 3.6C144.883 2.58667 145.23 1.73333 145.923 1.04C146.617 0.346666 147.51 0 148.603 0C149.697 0 150.59 0.346666 151.283 1.04C151.977 1.73333 152.323 2.58667 152.323 3.6C152.323 4.58667 151.977 5.44 151.283 6.16C150.59 6.85333 149.697 7.2 148.603 7.2C147.51 7.2 146.617 6.85333 145.923 6.16C145.23 5.44 144.883 4.58667 144.883 3.6ZM145.203 17.88H152.003V28.4C151.71 28.48 151.283 28.56 150.723 28.64C150.19 28.72 149.603 28.76 148.963 28.76C147.657 28.76 146.697 28.5333 146.083 28.08C145.497 27.6267 145.203 26.7867 145.203 25.56V17.88ZM152.003 21.44H145.203V9.28C145.497 9.2 145.91 9.12 146.443 9.04C147.003 8.96 147.603 8.92 148.243 8.92C149.577 8.92 150.537 9.14667 151.123 9.6C151.71 10.0267 152.003 10.8667 152.003 12.12V21.44Z" fill="black"/>
<path d="M166.372 29.04C165.412 29.04 164.559 28.9333 163.812 28.72C163.092 28.5067 162.413 28.2533 161.773 27.96V22.28C162.226 22.6267 162.746 22.9467 163.333 23.24C163.919 23.5333 164.586 23.68 165.333 23.68C166.666 23.68 167.679 23.2533 168.372 22.4C169.092 21.52 169.452 20.2533 169.452 18.6C169.452 17.4533 169.306 16.5333 169.012 15.84C168.719 15.12 168.279 14.5867 167.693 14.24C167.133 13.8933 166.426 13.72 165.572 13.72C165.066 13.72 164.599 13.7867 164.173 13.92C163.746 14.0267 163.386 14.16 163.092 14.32V26.24H156.333V13.24C156.333 12.52 156.479 11.92 156.773 11.44C157.093 10.96 157.519 10.5467 158.053 10.2C158.879 9.66667 159.946 9.24 161.253 8.92C162.559 8.57333 163.999 8.4 165.572 8.4C167.732 8.4 169.626 8.76 171.253 9.48C172.879 10.1733 174.146 11.28 175.053 12.8C175.959 14.2933 176.413 16.2267 176.413 18.6C176.413 20.8667 175.973 22.7733 175.092 24.32C174.212 25.8667 173.013 27.04 171.493 27.84C169.999 28.64 168.292 29.04 166.372 29.04ZM163.133 24.6V35.56C162.839 35.64 162.412 35.72 161.852 35.8C161.319 35.88 160.732 35.92 160.092 35.92C158.786 35.92 157.826 35.6933 157.212 35.24C156.626 34.7867 156.333 33.9467 156.333 32.72V24.6H163.133Z" fill="black"/>
</svg>
