<svg width="56" height="37" viewBox="0 0 56 37" fill="none" xmlns="http://www.w3.org/2000/svg">
<path d="M31.2941 24.7166C31.2941 22.2699 31.5686 19.6235 32.1176 16.7773C32.6667 13.8812 33.4902 11.2099 34.5882 8.76316C35.7362 6.26653 37.1586 4.19433 38.8556 2.54656C40.5526 0.848853 42.574 0 44.9198 0C45.7683 0 46.5668 0.299595 47.3155 0.898785C48.1141 1.49798 48.5134 2.44669 48.5134 3.74494V4.34413C48.4635 4.89339 48.3137 5.41768 48.0642 5.917C47.8146 6.41633 47.5401 6.91565 47.2406 7.41498C46.9412 7.91431 46.6667 8.4386 46.4171 8.98785C46.2175 9.48718 46.1176 9.9865 46.1176 10.4858C46.1176 11.0351 46.3672 11.4845 46.8663 11.834C47.3654 12.1835 47.9644 12.558 48.6631 12.9575C49.4118 13.357 50.2103 13.8313 51.0588 14.3806C51.9073 14.8799 52.6809 15.5789 53.3797 16.4777C54.1283 17.3266 54.7522 18.4251 55.2513 19.7733C55.7504 21.0715 56 22.7193 56 24.7166C56 29.0108 54.9269 32.1316 52.7808 34.0789C50.6346 36.0263 47.5651 37 43.5722 37C39.4296 37 36.3351 36.0263 34.2888 34.0789C32.2923 32.1316 31.2941 29.0108 31.2941 24.7166ZM0 24.7166C0 22.2699 0.27451 19.6235 0.823529 16.7773C1.37255 13.8812 2.19608 11.2099 3.29412 8.76316C4.44207 6.26653 5.86453 4.19433 7.5615 2.54656C9.25847 0.848853 11.2799 0 13.6257 0C14.4742 0 15.2727 0.299595 16.0214 0.898785C16.82 1.49798 17.2193 2.44669 17.2193 3.74494V4.34413C17.1693 4.89339 17.0196 5.41768 16.7701 5.917C16.5205 6.41633 16.246 6.91565 15.9465 7.41498C15.6471 7.91431 15.3725 8.4386 15.123 8.98785C14.9234 9.48718 14.8235 9.9865 14.8235 10.4858C14.8235 11.0351 15.0731 11.4845 15.5722 11.834C16.0713 12.1835 16.6702 12.558 17.369 12.9575C18.1176 13.357 18.9162 13.8313 19.7647 14.3806C20.6132 14.8799 21.3868 15.5789 22.0856 16.4777C22.8342 17.3266 23.4581 18.4251 23.9572 19.7733C24.4563 21.0715 24.7059 22.7193 24.7059 24.7166C24.7059 29.0108 23.6328 32.1316 21.4866 34.0789C19.3405 36.0263 16.2709 37 12.2781 37C8.13547 37 5.041 36.0263 2.99465 34.0789C0.998218 32.1316 0 29.0108 0 24.7166Z" fill="#EBE9DD"/>
</svg>
