<svg width="122" height="12" viewBox="0 0 122 12" fill="none" xmlns="http://www.w3.org/2000/svg">
<path d="M10.6399 5.26064C39.3487 5.26064 68.421 7.4344 97.1828 7.4344C102.339 7.4344 107.495 7.4344 112.65 7.4344C114.668 7.4344 124.389 8.18511 117.66 7.37402C98.6357 5.08101 78.9199 6.34752 59.6726 6.34752C51.9895 6.34752 44.4862 7.4344 36.8157 7.4344C28.9194 7.4344 20.6082 6.62684 12.8943 8.27975C9.7106 8.96194 6.44913 8.87582 3.31318 9.54778C-3.28981 10.9626 16.8138 8.6678 23.5399 7.97784C41.4797 6.1376 59.115 5.26064 77.144 5.26064C83.7356 5.26064 92.1617 5.23118 98.5605 3.93223C100.462 3.54629 110.836 2.96758 109.832 2" stroke="#7000FF" stroke-width="4" stroke-linecap="round"/>
</svg>
